:FULLY-SPECIFIED
:FORCE-ALL-JOINTS-BE-3DOF
:DEGREES
469
root 10.879 17.3965 29.4898 3.96302 4.2599 2.83725
lfemur -8.07355 2.51365 -28.456
ltibia 22.8202 0 0
lfoot -17.4931 3.76325 0
ltoes 3.6228 0 0
rfemur -32.9003 1.0356 16.0435
rtibia 49.7187 0 0
rfoot -19.692 -10.2674 0
rtoes -15.5613 0 0
lowerback -5.03122 -3.99369 -3.98758
upperback 0.334177 -5.14983 1.89943
thorax 3.69149 -2.65966 3.7568
lowerneck -22.6679 -2.84124 -10.1326
upperneck 24.3775 -3.29681 10.08
head 12.1411 -1.10636 4.99331
lclavicle -9.24349e-15 -2.38542e-15 0
lhumerus -12.1175 -19.6735 84.8937
lradius 27.2561 0 0
lwrist 5.09789 0 0
lhand -14.7232 -24.6897 0
lfingers 7.12502 0 0
lthumb 11.4317 4.97865 0
rclavicle -9.24349e-15 -2.38542e-15 0
rhumerus -45.3748 10.5343 -86.5254
rradius 38.7962 0 0
rwrist -19.863 0 0
rhand -25.1514 -40.542 0
rfingers 7.12502 0 0
rthumb 1.36532 -70.5174 0
470
root 10.8839 17.394 29.6153 3.96356 4.30157 2.87084
lfemur -7.08006 2.45785 -28.458
ltibia 21.8799 0 0
lfoot -17.4971 3.78832 0
ltoes 3.82007 0 0
rfemur -33.3339 1.33917 15.8596
rtibia 48.1881 0 0
rfoot -19.7003 -10.1477 0
rtoes -15.7219 0 0
lowerback -5.03913 -4.02951 -3.93088
upperback 0.344621 -5.19988 1.8755
thorax 3.70391 -2.68346 3.69455
lowerneck -22.6423 -2.83029 -10.1
upperneck 24.4203 -3.28963 10.0491
head 12.1506 -1.10503 4.97829
lclavicle -6.76696e-15 -2.38542e-15 0
lhumerus -11.7186 -19.8493 84.7314
lradius 27.6151 0 0
lwrist 5.39833 0 0
lhand -14.8935 -24.7762 0
lfingers 7.12502 0 0
lthumb 11.2675 4.90087 0
rclavicle -6.76696e-15 -2.38542e-15 0
rhumerus -45.6282 10.3949 -86.4783
rradius 38.8469 0 0
rwrist -19.9885 0 0
rhand -25.9521 -38.7922 0
rfingers 7.12502 0 0
rthumb 0.59196 -68.7642 0
471
root 10.8887 17.3915 29.7408 3.96409 4.34323 2.90443
lfemur -6.08657 2.40204 -28.4601
ltibia 20.9395 0 0
lfoot -17.501 3.81338 0
ltoes 4.01733 0 0
rfemur -33.7674 1.64274 15.6758
rtibia 46.6574 0 0
rfoot -19.7086 -10.028 0
rtoes -15.8825 0 0
lowerback -5.04704 -4.06533 -3.87417
upperback 0.355064 -5.24992 1.85157
thorax 3.71633 -2.70727 3.6323
lowerneck -22.6166 -2.81933 -10.0674
upperneck 24.4631 -3.28245 10.0182
head 12.1601 -1.10369 4.96327
lclavicle -4.29044e-15 -2.38542e-15 0
lhumerus -11.3198 -20.0251 84.569
lradius 27.974 0 0
lwrist 5.69877 0 0
lhand -15.0637 -24.8626 0
lfingers 7.12502 0 0
lthumb 11.1032 4.82308 0
rclavicle -4.29044e-15 -2.38542e-15 0
rhumerus -45.8815 10.2554 -86.4311
rradius 38.8975 0 0
rwrist -20.114 0 0
rhand -26.7529 -37.0425 0
rfingers 7.12502 0 0
rthumb -0.1814 -67.0109 0
472
root 10.8936 17.389 29.8663 3.96462 4.3849 2.93803
lfemur -5.09308 2.34624 -28.4621
ltibia 19.9992 0 0
lfoot -17.505 3.83845 0
ltoes 4.2146 0 0
rfemur -34.201 1.94632 15.4919
rtibia 45.1268 0 0
rfoot -19.717 -9.90833 0
rtoes -16.0431 0 0
lowerback -5.05495 -4.10115 -3.81747
upperback 0.365508 -5.29997 1.82763
thorax 3.72876 -2.73108 3.57005
lowerneck -22.5909 -2.80838 -10.0347
upperneck 24.5059 -3.27527 9.98724
head 12.1696 -1.10236 4.94825
lclavicle -1.81391e-15 -2.38542e-15 0
lhumerus -10.9209 -20.2009 84.4067
lradius 28.333 0 0
lwrist 5.99921 0 0
lhand -15.234 -24.9491 0
lfingers 7.12502 0 0
lthumb 10.939 4.7453 0
rclavicle -1.81391e-15 -2.38542e-15 0
rhumerus -46.1349 10.116 -86.384
rradius 38.9482 0 0
rwrist -20.2394 0 0
rhand -27.5536 -35.2927 0
rfingers 7.12502 0 0
rthumb -0.95476 -65.2577 0
473
root 10.8985 17.3866 29.9918 3.96516 4.42656 2.97162
lfemur -4.0996 2.29044 -28.4641
ltibia 19.0588 0 0
lfoot -17.509 3.86352 0
ltoes 4.41186 0 0
rfemur -34.6345 2.24989 15.308
rtibia 43.5961 0 0
rfoot -19.7253 -9.78863 0
rtoes -16.2037 0 0
lowerback -5.06287 -4.13697 -3.76077
upperback 0.375952 -5.35002 1.8037
thorax 3.74118 -2.75488 3.50781
lowerneck -22.5653 -2.79743 -10.0021
upperneck 24.5488 -3.26808 9.95632
head 12.179 -1.10103 4.93322
lclavicle 6.62617e-16 -2.38542e-15 0
lhumerus -10.5221 -20.3766 84.2444
lradius 28.692 0 0
lwrist 6.29965 0 0
lhand -15.4043 -25.0356 0
lfingers 7.12502 0 0
lthumb 10.7748 4.66752 0
rclavicle 6.62617e-16 -2.38542e-15 0
rhumerus -46.3882 9.97651 -86.3369
rradius 38.9989 0 0
rwrist -20.3649 0 0
rhand -28.3544 -33.5429 0
rfingers 7.12502 0 0
rthumb -1.72812 -63.5045 0
474
root 10.9033 17.3841 30.1173 3.96569 4.46823 3.00521
lfemur -3.10611 2.23463 -28.4662
ltibia 18.1184 0 0
lfoot -17.5129 3.88858 0
ltoes 4.60913 0 0
rfemur -35.068 2.55346 15.1242
rtibia 42.0654 0 0
rfoot -19.7336 -9.66894 0
rtoes -16.3643 0 0
lowerback -5.07078 -4.17279 -3.70406
upperback 0.386395 -5.40006 1.77977
thorax 3.7536 -2.77869 3.44556
lowerneck -22.5396 -2.78647 -9.9695
upperneck 24.5916 -3.2609 9.9254
head 12.1885 -1.09969 4.9182
lclavicle 3.13914e-15 -2.38542e-15 0
lhumerus -10.1232 -20.5524 84.082
lradius 29.0509 0 0
lwrist 6.60009 0 0
lhand -15.5745 -25.122 0
lfingers 7.12502 0 0
lthumb 10.6105 4.58973 0
rclavicle 3.13914e-15 -2.38542e-15 0
rhumerus -46.6416 9.83707 -86.2897
rradius 39.0495 0 0
rwrist -20.4904 0 0
rhand -29.1551 -31.7932 0
rfingers 7.12502 0 0
rthumb -2.50148 -61.7512 0
475
root 10.9082 17.3816 30.2428 3.96623 4.50989 3.0388
lfemur -2.11262 2.17883 -28.4682
ltibia 17.1781 0 0
lfoot -17.5169 3.91365 0
ltoes 4.80639 0 0
rfemur -35.5016 2.85703 14.9403
rtibia 40.5348 0 0
rfoot -19.7419 -9.54925 0
rtoes -16.5249 0 0
lowerback -5.07869 -4.20861 -3.64736
upperback 0.396839 -5.45011 1.75584
thorax 3.76602 -2.80249 3.38331
lowerneck -22.514 -2.77552 -9.93688
upperneck 24.6344 -3.25372 9.89448
head 12.198 -1.09836 4.90318
lclavicle 5.61567e-15 -2.38542e-15 0
lhumerus -9.72438 -20.7282 83.9197
lradius 29.4099 0 0
lwrist 6.90053 0 0
lhand -15.7448 -25.2085 0
lfingers 7.12502 0 0
lthumb 10.4463 4.51195 0
rclavicle 5.61567e-15 -2.38542e-15 0
rhumerus -46.8949 9.69762 -86.2426
rradius 39.1002 0 0
rwrist -20.6159 0 0
rhand -29.9559 -30.0434 0
rfingers 7.12502 0 0
rthumb -3.27484 -59.998 0
